<svg width="187" height="26" viewBox="0 0 187 26" fill="none" xmlns="http://www.w3.org/2000/svg">
<path d="M52.5071 18.4716V21.8949H39V4.10547H52.2427V7.54358H42.8656V11.1049H50.1827V14.5283H42.8656V18.4741H52.5071V18.4716Z" fill="white"/>
<path d="M56.7894 21.8949V4.10547H60.655V18.4691H69.0021V21.8925H56.7894V21.8949Z" fill="white"/>
<path d="M88.3902 4.10547H91.8043V21.8949H87.9513V10.0353L82.1654 17.3157L76.3919 10.0846V21.8949H72.5264V4.10547H76.0029L82.1654 11.8591L88.3902 4.10547Z" fill="white"/>
<path d="M100.29 17.7027L98.7467 21.8949H94.6293L101.709 4.10547H105.814L112.895 21.8949H108.777L107.234 17.7027H100.29ZM103.769 8.559L101.572 14.4026H105.954L103.769 8.559Z" fill="white"/>
<path d="M16.3695 21.8959H13L17.077 25.9729C22.0586 25.6081 26 21.4424 26 16.3695V13H21.8959V16.3695C21.8959 19.4162 19.4162 21.8959 16.3695 21.8959Z" fill="#5082E6"/>
<path d="M21.8959 9.63292V13L25.9729 8.92302C25.6081 3.94388 21.4424 0 16.3696 0H13V4.1041H16.3696C19.4162 4.1041 21.8959 6.58381 21.8959 9.63292Z" fill="#FABE00"/>
<path d="M9.63292 4.10479H13L8.92302 0.0302734C3.94388 0.392617 0 4.5608 0 9.63361V13.0032H4.1041V9.63361C4.1041 6.5845 6.58381 4.10479 9.63292 4.10479Z" fill="#E62D32"/>
<path d="M4.10406 16.3695V13L0.029541 17.077C0.39435 22.0586 4.56007 26 9.63288 26H13.0024V21.8959H9.63288C6.58377 21.8959 4.10406 19.4162 4.10406 16.3695Z" fill="#5AD2FF"/>
<path d="M128.492 4.09645V10.9473H127.026V5.4198H124.14V10.9473H122.669V4.09645H128.492Z" fill="white"/>
<path d="M131.086 4.09645L132.701 7.326L134.072 4.09645H135.639L133.241 9.23698C132.961 9.82938 132.631 10.2785 132.252 10.5842C131.873 10.89 131.403 11.0429 130.843 11.0429C130.712 11.0429 130.582 11.0301 130.451 11.0046C130.32 10.9792 130.223 10.9537 130.16 10.9282L130.059 10.8995V9.62873C130.222 9.69243 130.418 9.72428 130.647 9.72428C131.137 9.72428 131.513 9.49656 131.774 9.04111L131.97 8.69713L129.524 4.09645H131.086Z" fill="white"/>
<path d="M137.985 9.62873H139.452C139.713 9.62873 139.933 9.54592 140.111 9.3803C140.289 9.2115 140.379 9.01722 140.379 8.79746C140.379 8.57451 140.289 8.38023 140.111 8.21461C139.933 8.0458 139.713 7.9614 139.452 7.9614H137.985V9.62873ZM139.499 10.9473H136.514V4.09645H141.262V5.4198H137.985V6.64283H139.499C140.171 6.64283 140.73 6.85303 141.176 7.27345C141.622 7.69387 141.845 8.20187 141.845 8.79746C141.845 9.38986 141.622 9.89627 141.176 10.3167C140.73 10.7371 140.171 10.9473 139.499 10.9473Z" fill="white"/>
<path d="M148.887 4.09645V10.9473H147.42V5.4198H145.414V6.2033C145.414 7.16835 145.36 7.97892 145.252 8.63502C145.146 9.28794 144.989 9.78957 144.779 10.1399C144.572 10.4903 144.339 10.7371 144.081 10.8804C143.823 11.0237 143.517 11.0954 143.164 11.0954C143.02 11.0954 142.876 11.0795 142.729 11.0476C142.583 11.019 142.474 10.9919 142.404 10.9664L142.285 10.9282V9.52841C142.447 9.5921 142.61 9.62555 142.772 9.62873C143.027 9.62873 143.232 9.55229 143.388 9.39941C143.548 9.24335 143.68 8.90734 143.785 8.39137C143.893 7.87222 143.947 7.14605 143.947 6.21286V4.09645H148.887Z" fill="white"/>
<path d="M156.76 10.9473H155.294V6.59505L151.921 10.9473H150.645V4.09645H152.117V8.45348L155.49 4.09645H156.76V10.9473Z" fill="white"/>
<path d="M159.89 4.09645V6.2033C159.89 6.61416 159.995 6.92947 160.205 7.14924C160.418 7.36581 160.721 7.4741 161.113 7.4741C161.355 7.4741 161.589 7.43429 161.815 7.35467C162.044 7.27186 162.211 7.19064 162.317 7.11102L162.484 6.9868V4.09645H163.95V10.9473H162.484V8.4057C162.06 8.66687 161.522 8.79586 160.869 8.79268C160.105 8.79268 159.506 8.56655 159.073 8.11428C158.639 7.66202 158.423 7.02502 158.423 6.2033V4.09645H159.89Z" fill="white"/>
<path d="M171.585 4.09645V10.9473H170.118V8.15728H167.185V10.9473H165.713V4.09645H167.185V6.8387H170.118V4.09645H171.585Z" fill="white"/>
<path d="M175.115 5.92621C174.689 6.35937 174.475 6.89285 174.475 7.52665C174.475 8.15728 174.689 8.68917 175.115 9.12232C175.542 9.55548 176.061 9.77205 176.673 9.77205C177.287 9.77205 177.808 9.55548 178.235 9.12232C178.662 8.68917 178.875 8.15728 178.875 7.52665C178.875 6.89285 178.662 6.35937 178.235 5.92621C177.808 5.48987 177.287 5.2717 176.673 5.2717C176.061 5.2717 175.542 5.48987 175.115 5.92621ZM174.031 10.0491C173.314 9.34845 172.956 8.50603 172.956 7.52188C172.956 6.53772 173.314 5.69689 174.031 4.99939C174.751 4.30188 175.631 3.95312 176.673 3.95312C177.717 3.95312 178.598 4.30188 179.315 4.99939C180.035 5.69689 180.394 6.53772 180.394 7.52188C180.394 8.50603 180.035 9.34845 179.315 10.0491C178.598 10.7467 177.717 11.0954 176.673 11.0954C175.631 11.0954 174.751 10.7467 174.031 10.0491Z" fill="white"/>
<path d="M183.237 9.62873H186.906V10.9473H181.766V4.09645H186.806V5.4198H183.237V6.79093H186.022V8.1095H183.237V9.62873Z" fill="white"/>
<path d="M126.194 19.0091L125.363 16.7589L124.527 19.0091H126.194ZM126.682 20.2799H124.04L123.452 21.8947H121.885L124.579 15.0438H126.142L128.836 21.8947H127.269L126.682 20.2799Z" fill="white"/>
<path d="M129.816 15.0438H132.701C133.405 15.0438 133.988 15.2652 134.45 15.7079C134.915 16.1474 135.147 16.6936 135.147 17.3465C135.147 17.9963 134.916 18.5425 134.454 18.9852C133.993 19.4247 133.408 19.6445 132.701 19.6445H131.287V21.8947H129.816V15.0438ZM132.653 16.3672H131.287V18.3211H132.653C132.946 18.3211 133.19 18.2272 133.384 18.0393C133.582 17.8514 133.681 17.6205 133.681 17.3465C133.681 17.0726 133.582 16.8417 133.384 16.6538C133.19 16.4627 132.946 16.3672 132.653 16.3672Z" fill="white"/>
<path d="M136.466 21.8947V15.0438H137.937V21.8947H136.466Z" fill="white"/>
</svg>
